HIERARCHY
ROOT Hips
{
	OFFSET 0.000000 83.214638 0.000000
	CHANNELS 6 Xposition Yposition Zposition Xrotation Yrotation Zrotation
	JOINT Pelvis
	{
		OFFSET 0.000000 0.000000 0.000000
		CHANNELS 3 Xrotation Yrotation Zrotation
		JOINT LeftUpLeg
		{
			OFFSET 8.479700 -4.795502 -0.379100
			CHANNELS 3 Xrotation Yrotation Zrotation
			JOINT LeftLeg
			{
				OFFSET 0.024144 -32.555107 0.112900
				CHANNELS 3 Xrotation Yrotation Zrotation
				JOINT LeftFoot
				{
					OFFSET -0.024144 -32.638630 -3.012600
					CHANNELS 3 Xrotation Yrotation Zrotation
					JOINT LeftToeBase
					{
						OFFSET 0.970200 -13.225400 11.864200
						CHANNELS 3 Xrotation Yrotation Zrotation
						End Site
						{
							OFFSET 0.000000 12.319262 0.000000
						}
					}
					JOINT LFootTongue
					{
						OFFSET 1.142400 -1.059800 6.665200
						CHANNELS 3 Xrotation Yrotation Zrotation
						End Site
						{
							OFFSET 0.000000 12.319262 0.000000
						}
					}
				}
				JOINT LeftPantLeg
				{
					OFFSET 0.918482 -16.533964 -2.284700
					CHANNELS 3 Xrotation Yrotation Zrotation
					End Site
					{
						OFFSET 0.350399 24.744368 0.000000
					}
				}
			}
		}
		JOINT RightUpLeg
		{
			OFFSET -8.479700 -4.795502 -0.379100
			CHANNELS 3 Xrotation Yrotation Zrotation
			JOINT RightLeg
			{
				OFFSET -0.023144 -32.555092 0.112900
				CHANNELS 3 Xrotation Yrotation Zrotation
				JOINT RightFoot
				{
					OFFSET 0.023144 -32.638641 -3.012700
					CHANNELS 3 Xrotation Yrotation Zrotation
					JOINT RightToeBase
					{
						OFFSET -0.970200 -13.225400 11.864200
						CHANNELS 3 Xrotation Yrotation Zrotation
						End Site
						{
							OFFSET 0.000000 12.319244 0.000000
						}
					}
					JOINT RFootTongue
					{
						OFFSET -1.142200 -1.059800 6.665200
						CHANNELS 3 Xrotation Yrotation Zrotation
						End Site
						{
							OFFSET 0.000000 12.319243 0.000000
						}
					}
				}
				JOINT RightPantLeg
				{
					OFFSET -0.919482 -16.533978 -2.284800
					CHANNELS 3 Xrotation Yrotation Zrotation
					End Site
					{
						OFFSET -0.350400 24.744419 0.000000
					}
				}
			}
		}
	}
	JOINT Spine
	{
		OFFSET 0.000000 7.722000 1.166200
		CHANNELS 3 Xrotation Yrotation Zrotation
		JOINT Spine1
		{
			OFFSET 0.000000 12.024101 0.248800
			CHANNELS 3 Xrotation Yrotation Zrotation
			JOINT Spine2
			{
				OFFSET 0.000000 11.502998 -0.491200
				CHANNELS 3 Xrotation Yrotation Zrotation
				JOINT Neck
				{
					OFFSET 0.000000 18.430702 -3.123100
					CHANNELS 3 Xrotation Yrotation Zrotation
					JOINT Head
					{
						OFFSET 0.000000 9.051102 1.034000
						CHANNELS 3 Xrotation Yrotation Zrotation
						JOINT HairB
						{
							OFFSET 0.208400 24.786102 24.822300
							CHANNELS 3 Xrotation Yrotation Zrotation
							End Site
							{
								OFFSET 0.000000 32.263779 0.000000
							}
						}
						JOINT HairA
						{
							OFFSET -7.081100 24.428299 23.196600
							CHANNELS 3 Xrotation Yrotation Zrotation
							End Site
							{
								OFFSET 0.000000 32.263779 0.000000
							}
						}
						JOINT Hat
						{
							OFFSET 16.728800 15.048294 -15.439601
							CHANNELS 3 Xrotation Yrotation Zrotation
							End Site
							{
								OFFSET 0.000000 32.263779 0.000000
							}
						}
					}
				}
				JOINT LeftShoulder
				{
					OFFSET 6.197800 13.665199 -4.064700
					CHANNELS 3 Xrotation Yrotation Zrotation
					JOINT LeftArm
					{
						OFFSET 7.778100 -0.187103 -1.709300
						CHANNELS 3 Xrotation Yrotation Zrotation
						JOINT LeftForeArm
						{
							OFFSET 22.049376 0.000000 0.000000
							CHANNELS 3 Xrotation Yrotation Zrotation
							JOINT LeftHand
							{
								OFFSET 23.009392 0.000000 0.000000
								CHANNELS 3 Xrotation Yrotation Zrotation
								JOINT LeftHandThumb1
								{
									OFFSET 3.507191 -2.063065 3.133727
									CHANNELS 3 Xrotation Yrotation Zrotation
									JOINT LeftHandThumb2
									{
										OFFSET 3.101337 -1.790558 1.790558
										CHANNELS 3 Xrotation Yrotation Zrotation
										JOINT LeftHandThumb3
										{
											OFFSET 3.058640 -1.765907 1.765906
											CHANNELS 3 Xrotation Yrotation Zrotation
											End Site
											{
												OFFSET -0.415260 3.926476 -0.049563
											}
										}
									}
								}
								JOINT LeftHandIndex1
								{
									OFFSET 11.334419 -0.901459 3.706815
									CHANNELS 3 Xrotation Yrotation Zrotation
									JOINT LeftHandIndex2
									{
										OFFSET 3.283112 0.000000 0.000000
										CHANNELS 3 Xrotation Yrotation Zrotation
										JOINT LeftHandIndex3
										{
											OFFSET 3.323853 0.000000 0.000000
											CHANNELS 3 Xrotation Yrotation Zrotation
											End Site
											{
												OFFSET -1.135597 3.097809 0.402452
											}
										}
									}
								}
								JOINT LeftHandMiddle1
								{
									OFFSET 11.335861 0.000000 0.000000
									CHANNELS 3 Xrotation Yrotation Zrotation
									JOINT LeftHandMiddle2
									{
										OFFSET 3.410492 0.000000 0.000000
										CHANNELS 3 Xrotation Yrotation Zrotation
										JOINT LeftHandMiddle3
										{
											OFFSET 3.312172 0.000000 0.000000
											CHANNELS 3 Xrotation Yrotation Zrotation
											End Site
											{
												OFFSET -1.150200 3.080154 0.400270
											}
										}
									}
								}
								JOINT LeftHandRing1
								{
									OFFSET 11.514786 -0.013176 -3.003090
									CHANNELS 3 Xrotation Yrotation Zrotation
									JOINT LeftHandRing2
									{
										OFFSET 3.053307 0.000000 0.000000
										CHANNELS 3 Xrotation Yrotation Zrotation
										JOINT LeftHandRing3
										{
											OFFSET 3.295807 0.000000 0.000000
											CHANNELS 3 Xrotation Yrotation Zrotation
											End Site
											{
												OFFSET -1.281006 3.013344 0.375733
											}
										}
									}
								}
								JOINT LeftHandPinky1
								{
									OFFSET 10.518692 -0.960396 -5.730441
									CHANNELS 3 Xrotation Yrotation Zrotation
									JOINT LeftHandPinky2
									{
										OFFSET 2.861649 0.000000 0.000000
										CHANNELS 3 Xrotation Yrotation Zrotation
										JOINT LeftHandPinky3
										{
											OFFSET 2.863380 0.000000 0.000000
											CHANNELS 3 Xrotation Yrotation Zrotation
											End Site
											{
												OFFSET -0.843597 2.711159 0.369971
											}
										}
									}
								}
							}
							JOINT LSleeve
							{
								OFFSET 6.676277 -0.344902 -1.011730
								CHANNELS 3 Xrotation Yrotation Zrotation
								End Site
								{
									OFFSET 0.000000 14.885353 0.000000
								}
							}
						}
					}
				}
				JOINT RightShoulder
				{
					OFFSET -6.197800 13.665199 -4.064700
					CHANNELS 3 Xrotation Yrotation Zrotation
					JOINT RightArm
					{
						OFFSET -7.778100 -0.187103 -1.709300
						CHANNELS 3 Xrotation Yrotation Zrotation
						JOINT RightForeArm
						{
							OFFSET -22.049376 0.000000 0.000000
							CHANNELS 3 Xrotation Yrotation Zrotation
							JOINT RightHand
							{
								OFFSET -23.009392 0.000000 0.000000
								CHANNELS 3 Xrotation Yrotation Zrotation
								JOINT RightHandThumb1
								{
									OFFSET -3.507191 -2.063065 3.133727
									CHANNELS 3 Xrotation Yrotation Zrotation
									JOINT RightHandThumb2
									{
										OFFSET -3.101337 -1.790558 1.790558
										CHANNELS 3 Xrotation Yrotation Zrotation
										JOINT RightHandThumb3
										{
											OFFSET -3.058640 -1.765907 1.765906
											CHANNELS 3 Xrotation Yrotation Zrotation
											End Site
											{
												OFFSET 0.415260 3.926476 -0.049563
											}
										}
									}
								}
								JOINT RightHandIndex1
								{
									OFFSET -11.334419 -0.901459 3.706815
									CHANNELS 3 Xrotation Yrotation Zrotation
									JOINT RightHandIndex2
									{
										OFFSET -3.283112 0.000000 0.000000
										CHANNELS 3 Xrotation Yrotation Zrotation
										JOINT RightHandIndex3
										{
											OFFSET -3.323853 0.000000 0.000000
											CHANNELS 3 Xrotation Yrotation Zrotation
											End Site
											{
												OFFSET 1.135597 3.097809 0.402452
											}
										}
									}
								}
								JOINT RightHandMiddle1
								{
									OFFSET -11.335861 0.000000 0.000000
									CHANNELS 3 Xrotation Yrotation Zrotation
									JOINT RightHandMiddle2
									{
										OFFSET -3.410492 0.000000 0.000000
										CHANNELS 3 Xrotation Yrotation Zrotation
										JOINT RightHandMiddle3
										{
											OFFSET -3.312172 0.000000 0.000000
											CHANNELS 3 Xrotation Yrotation Zrotation
											End Site
											{
												OFFSET 1.150200 3.080154 0.400270
											}
										}
									}
								}
								JOINT RightHandRing1
								{
									OFFSET -11.514786 -0.013176 -3.003090
									CHANNELS 3 Xrotation Yrotation Zrotation
									JOINT RightHandRing2
									{
										OFFSET -3.053307 0.000000 0.000000
										CHANNELS 3 Xrotation Yrotation Zrotation
										JOINT RightHandRing3
										{
											OFFSET -3.295807 0.000000 0.000000
											CHANNELS 3 Xrotation Yrotation Zrotation
											End Site
											{
												OFFSET 1.281006 3.013344 0.375733
											}
										}
									}
								}
								JOINT RightHandPinky1
								{
									OFFSET -10.518692 -0.960396 -5.730441
									CHANNELS 3 Xrotation Yrotation Zrotation
									JOINT RightHandPinky2
									{
										OFFSET -2.861649 0.000000 0.000000
										CHANNELS 3 Xrotation Yrotation Zrotation
										JOINT RightHandPinky3
										{
											OFFSET -2.863380 0.000000 0.000000
											CHANNELS 3 Xrotation Yrotation Zrotation
											End Site
											{
												OFFSET 0.843597 2.711159 0.369971
											}
										}
									}
								}
							}
							JOINT RSleeve
							{
								OFFSET -6.676277 -0.344902 -1.011730
								CHANNELS 3 Xrotation Yrotation Zrotation
								End Site
								{
									OFFSET 0.000000 14.885353 0.000000
								}
							}
						}
					}
				}
				JOINT Backpack
				{
					OFFSET 0.000000 -2.471497 36.677502
					CHANNELS 3 Xrotation Yrotation Zrotation
					End Site
					{
						OFFSET 0.000000 20.427315 0.000000
					}
				}
				JOINT Hood
				{
					OFFSET 0.000000 18.754097 -10.431000
					CHANNELS 3 Xrotation Yrotation Zrotation
					JOINT Hood1
					{
						OFFSET 0.000000 -5.011002 -7.685901
						CHANNELS 3 Xrotation Yrotation Zrotation
						End Site
						{
							OFFSET 0.000000 9.175140 0.000000
						}
					}
				}
				JOINT LHoodieString
				{
					OFFSET 5.250500 16.397697 3.089900
					CHANNELS 3 Xrotation Yrotation Zrotation
					JOINT LHoodieString1
					{
						OFFSET 0.257700 -6.364304 3.694600
						CHANNELS 3 Xrotation Yrotation Zrotation
						JOINT LHoodieString2
						{
							OFFSET 0.000000 -9.643799 2.679100
							CHANNELS 3 Xrotation Yrotation Zrotation
							End Site
							{
								OFFSET 0.000000 10.009018 0.000000
							}
						}
					}
				}
				JOINT RHoodieString
				{
					OFFSET -5.250500 16.397697 3.089900
					CHANNELS 3 Xrotation Yrotation Zrotation
					JOINT RHoodieString1
					{
						OFFSET -0.257700 -6.364304 3.694600
						CHANNELS 3 Xrotation Yrotation Zrotation
						JOINT RHoodieString2
						{
							OFFSET 0.000000 -9.643799 2.679100
							CHANNELS 3 Xrotation Yrotation Zrotation
							End Site
							{
								OFFSET 0.000000 10.009018 0.000000
							}
						}
					}
				}
			}
			JOINT LBackpack_Strap
			{
				OFFSET 15.223200 -7.719803 -6.610900
				CHANNELS 3 Xrotation Yrotation Zrotation
				End Site
				{
					OFFSET 0.000000 16.040596 0.000000
				}
			}
			JOINT RBackpack_Strap
			{
				OFFSET -15.223000 -7.719803 -6.610900
				CHANNELS 3 Xrotation Yrotation Zrotation
				End Site
				{
					OFFSET 0.000000 16.040596 0.000000
				}
			}
		}
	}
	JOINT BoyFacialAnim_Joint
	{
		OFFSET 1.000000 -82.208099 -1.550900
		CHANNELS 3 Xrotation Yrotation Zrotation
		End Site
		{
			OFFSET 0.000000 30.012791 0.000000
		}
	}
}
MOTION
Frames: 4
Frame Time: 0.033333
-0.096645 81.452705 0.934941 -5.681377 1.839729 -0.381657 -0.000000 -0.000000 -0.000000 -8.361610 7.097933 3.666243 24.895853 7.851768 2.047923 -14.626881 0.761942 -4.748855 0.000000 -0.000001 0.000000 0.000000 -0.000001 -0.000000 0.000001 0.000002 -0.000001 -6.811885 -5.525628 -1.340176 24.768496 -9.963521 -0.289825 -17.070002 -2.765586 2.833707 -0.000000 -0.000001 -0.000000 -0.000000 -0.000001 -0.000000 0.000000 0.000001 -0.000000 1.419178 -0.251469 -0.057288 2.811721 -0.518708 -0.065462 2.811081 -0.522985 -0.065080 4.988670 -0.421720 0.306189 -3.010972 -1.782168 -0.181230 -0.000000 0.000000 0.000000 -0.000000 0.000000 0.000000 -0.000000 0.000000 0.000000 1.147657 -13.245425 -3.226496 -25.787051 -15.742237 -63.604135 -0.000002 -19.013080 -0.000005 22.628225 1.111392 -18.232495 1.323745 8.380018 4.477715 8.851333 25.498983 -3.014030 0.000003 -0.000001 0.000002 -2.880466 -1.735549 -36.344287 1.000255 3.579162 -31.218705 -0.000003 0.000003 0.000000 0.905002 3.437056 -32.848190 1.249148 3.959976 -35.003241 0.000001 0.000001 0.000001 3.837870 7.167732 -38.906506 0.476587 2.521594 -21.402536 0.000000 0.000002 -0.000002 5.222763 8.590222 -40.671256 0.061275 -3.070133 -8.694284 0.000001 0.000003 0.000000 0.000001 -0.000003 0.000003 1.838047 8.179359 8.199578 -16.226468 50.137304 44.881634 0.000004 9.300337 0.000006 -0.640818 2.250884 6.725565 -8.151519 -8.203403 -5.407861 12.007817 -26.747075 1.376279 0.000002 0.000001 0.000003 0.272990 -2.642150 36.074313 0.848757 -3.334122 28.557386 0.000001 -0.000000 0.000004 2.746917 -6.638970 29.664789 0.592541 -2.813477 23.781925 -0.000000 0.000000 -0.000000 2.864935 -6.814252 29.878161 0.365299 -2.228218 18.619079 -0.000002 0.000002 -0.000001 3.306160 -7.817199 28.433628 0.647716 -2.935316 24.882031 -0.000001 -0.000001 0.000002 -0.000000 -0.000001 -0.000001 0.000000 0.000000 -0.000000 0.000000 0.000000 -0.000000 0.000000 0.000000 -0.000000 0.000000 0.000000 -0.000000 0.000000 0.000000 0.000000 0.000000 0.000000 0.000000 0.000000 0.000000 -0.000000 0.000000 0.000000 0.000000 0.000000 0.000000 0.000000 -0.000000 -0.000000 -0.000000 -0.000000 -0.000000 -0.000000 -0.000000 -0.000000 -0.000000 
-0.122876 81.435822 0.975498 -5.715841 1.659691 -0.395009 0.000000 -0.000000 0.000000 -8.301521 7.118256 3.726161 24.944022 8.025109 2.028256 -14.610698 0.765361 -4.831492 0.000000 0.000001 0.000000 0.000000 0.000001 0.000000 -0.000000 0.000000 0.000000 -6.807542 -5.561765 -1.357521 24.816970 -9.982356 -0.277087 -16.967131 -2.542018 2.855291 0.000000 -0.000001 -0.000000 0.000000 -0.000001 -0.000000 -0.000000 0.000000 -0.000000 1.409205 -0.237348 -0.068992 2.791070 -0.490162 -0.090793 2.790461 -0.494158 -0.090446 4.983159 -0.416864 0.308525 -2.952228 -1.770376 -0.135091 0.000000 0.000000 -0.000000 0.000000 0.000000 -0.000000 0.000000 0.000000 -0.000000 1.153624 -13.243307 -3.137701 -25.415400 -15.561980 -63.565251 0.000007 -19.034398 -0.000000 22.666101 1.036983 -18.241366 1.289173 8.320049 4.440709 8.828736 25.438761 -2.997852 -0.000000 -0.000002 0.000003 -2.882005 -1.759387 -36.243535 0.999596 3.578076 -31.208135 -0.000001 -0.000001 -0.000000 0.902083 3.431077 -32.724352 1.247048 3.956990 -34.972809 0.000002 -0.000000 0.000002 3.822441 7.158659 -38.807987 0.475857 2.519724 -21.385884 -0.000002 -0.000001 -0.000000 5.228364 8.602899 -40.627382 0.061131 -3.071159 -8.685839 -0.000000 0.000003 0.000002 -0.000001 0.000003 -0.000003 1.854334 8.287888 8.204219 -16.476935 50.005939 44.769957 0.000007 9.494950 -0.000012 -0.398755 2.328412 6.796375 -8.137170 -8.228042 -5.393090 12.019571 -26.772434 1.379176 -0.000000 0.000001 0.000000 0.268793 -2.636352 36.073890 0.848625 -3.333874 28.555040 0.000001 -0.000000 0.000004 2.740888 -6.627673 29.671909 0.592162 -2.812607 23.774307 0.000001 0.000001 0.000002 2.873235 -6.827392 29.886442 0.365086 -2.227542 18.613399 -0.000003 0.000000 -0.000001 3.313357 -7.825439 28.459764 0.648046 -2.936035 24.888378 -0.000000 -0.000001 -0.000002 -0.000001 -0.000001 0.000003 0.000000 0.000000 0.000000 0.000000 0.000000 0.000000 0.000000 0.000000 0.000000 0.000000 0.000000 0.000000 0.000000 0.000000 0.000000 -0.000000 0.000000 -0.000000 0.000000 0.000000 0.000000 0.000000 0.000000 0.000000 -0.000000 0.000000 -0.000000 -0.000000 -0.000000 0.000000 -0.000000 -0.000000 0.000000 0.000000 -0.000000 0.000000 
-0.151873 81.431587 1.077302 -5.759759 1.481532 -0.404106 0.000001 0.000000 0.000000 -8.102859 7.168886 3.771360 24.872228 8.131010 2.002754 -14.570368 0.774433 -4.897076 0.000000 0.000000 0.000000 0.000000 0.000000 0.000000 -0.000000 0.000001 0.000000 -6.688682 -5.589617 -1.354634 24.757113 -10.009090 -0.290525 -16.853191 -2.315277 2.891897 0.000000 0.000001 0.000000 0.000000 0.000001 0.000000 0.000001 -0.000001 0.000000 1.393686 -0.226903 -0.074679 2.756768 -0.469006 -0.104775 2.756193 -0.472820 -0.104424 4.969384 -0.405314 0.294689 -2.891475 -1.724925 -0.134016 0.000000 -0.000000 0.000000 0.000000 -0.000000 0.000000 0.000000 -0.000000 0.000000 1.155334 -13.208598 -3.084637 -24.848527 -15.399187 -63.603773 -0.000010 -18.745895 -0.000008 22.642994 0.848745 -18.249374 1.272606 8.283939 4.366762 8.825611 25.430398 -2.995620 0.000005 -0.000002 -0.000001 -2.861432 -1.748900 -36.156952 1.001472 3.581208 -31.238652 -0.000003 -0.000005 0.000001 0.913806 3.447975 -32.598246 1.245336 3.954526 -34.947804 -0.000004 -0.000001 -0.000002 3.823378 7.169717 -38.709079 0.474726 2.516814 -21.360134 -0.000000 0.000000 -0.000000 5.220020 8.602252 -40.564838 0.060793 -3.073302 -8.667927 0.000001 -0.000001 -0.000002 -0.000002 -0.000001 0.000002 1.859524 8.320544 8.204713 -16.502227 49.874704 44.813192 0.000009 9.593866 -0.000024 -0.257220 2.406844 6.867256 -8.126212 -8.247066 -5.363255 12.025951 -26.786229 1.380754 0.000003 0.000002 0.000001 0.268604 -2.634041 36.035494 0.848434 -3.333502 28.551490 -0.000001 0.000002 0.000002 2.737370 -6.621797 29.670171 0.591968 -2.812194 23.770353 0.000000 0.000002 0.000002 2.874704 -6.829391 29.890311 0.364804 -2.226680 18.605956 0.000001 0.000001 0.000000 3.314597 -7.823727 28.481399 0.648252 -2.936480 24.892457 0.000000 0.000000 0.000000 -0.000002 0.000002 -0.000002 0.000000 0.000000 -0.000000 0.000000 0.000000 -0.000000 0.000000 0.000000 -0.000000 0.000000 0.000000 -0.000000 0.000000 0.000000 -0.000000 -0.000000 -0.000000 -0.000000 0.000000 0.000000 -0.000000 0.000000 0.000000 -0.000000 -0.000000 -0.000000 -0.000000 -0.000000 0.000000 0.000000 -0.000000 0.000000 0.000000 0.000001 0.000000 0.000000 
-0.178129 81.437256 1.260058 -5.803691 1.324524 -0.413806 0.000000 -0.000000 -0.000000 -7.786247 7.265906 3.816271 24.689582 8.178808 1.968820 -14.483035 0.783184 -4.948108 -0.000000 -0.000002 -0.000000 -0.000000 -0.000002 -0.000000 -0.000000 0.000001 -0.000000 -6.445593 -5.598047 -1.328498 24.594302 -10.011094 -0.321916 -16.749313 -2.144775 2.935465 0.000000 -0.000001 -0.000000 0.000000 -0.000001 -0.000000 -0.000001 -0.000000 -0.000000 1.375362 -0.220670 -0.072938 2.714223 -0.456537 -0.102443 2.713672 -0.460244 -0.102054 4.940022 -0.391205 0.279710 -2.885660 -1.650436 -0.180433 0.000000 0.000000 -0.000000 0.000000 0.000000 -0.000000 0.000000 0.000000 -0.000000 1.151887 -13.153433 -3.085985 -24.132776 -15.278908 -63.716267 -0.000002 -18.151368 -0.000002 22.578719 0.618676 -18.241125 1.278831 8.282625 4.281357 8.844222 25.480036 -3.008935 -0.000005 0.000001 0.000006 -2.825846 -1.709144 -36.106665 1.006792 3.589910 -31.323411 -0.000003 0.000003 -0.000001 0.930415 3.473246 -32.527799 1.244214 3.952931 -34.931551 0.000003 -0.000001 0.000000 3.838124 7.193992 -38.648960 0.473570 2.513889 -21.333993 -0.000002 -0.000001 -0.000001 5.196144 8.582055 -40.514175 0.060357 -3.076293 -8.642992 0.000002 0.000001 -0.000000 -0.000001 0.000001 -0.000001 1.850672 8.249759 8.229609 -16.230394 49.755111 44.970088 0.000005 9.592186 -0.000015 -0.196273 2.474114 6.979801 -8.120302 -8.257826 -5.329713 12.029129 -26.793080 1.381613 -0.000002 0.000001 -0.000001 0.273781 -2.637143 35.959737 0.848273 -3.333233 28.548985 0.000000 0.000002 0.000002 2.735995 -6.621067 29.657030 0.591871 -2.811966 23.768254 -0.000000 0.000001 -0.000002 2.868496 -6.818879 29.889266 0.364318 -2.225283 18.593764 -0.000002 0.000000 0.000000 3.307182 -7.810673 28.479601 0.647955 -2.935851 24.886824 0.000002 -0.000002 0.000004 -0.000002 -0.000002 0.000003 0.000000 0.000000 -0.000000 0.000000 0.000000 -0.000000 0.000000 0.000000 -0.000000 0.000000 0.000000 -0.000000 0.000000 0.000000 -0.000000 -0.000000 0.000000 -0.000000 0.000000 0.000000 -0.000000 0.000000 0.000000 -0.000000 -0.000000 0.000000 -0.000000 0.000000 -0.000000 0.000000 0.000000 -0.000000 0.000000 0.000000 -0.000000 -0.000000 
